<svg xmlns="http://www.w3.org/2000/svg" width="1089" height="1446" viewBox="0 0 1089 1446" version="1.1"><path d="M 520.483 529.355 C 514.530 533.285, 508.611 537.087, 507.330 537.805 C 506.048 538.522, 505 539.535, 505 540.055 C 505 540.575, 504.382 541, 503.626 541 C 502.870 541, 500.957 542.152, 499.376 543.561 C 497.794 544.969, 493.285 548.481, 489.356 551.365 C 480.773 557.666, 476.194 561.227, 470.089 566.351 C 464.716 570.859, 463.135 572.149, 456.471 577.466 C 453.737 579.647, 451.275 581.675, 451 581.972 C 450.725 582.269, 448.925 583.700, 447 585.154 C 445.075 586.607, 442.595 588.629, 441.490 589.648 C 440.384 590.667, 437.252 593.295, 434.529 595.489 C 431.807 597.683, 428.384 600.608, 426.923 601.989 C 425.463 603.370, 423.195 605.371, 421.884 606.435 C 410.959 615.303, 390.622 634.667, 382.954 643.500 C 380.090 646.800, 375.328 652.148, 372.373 655.383 C 369.418 658.619, 367 661.629, 367 662.072 C 367 662.514, 365.650 664.355, 364 666.161 C 362.350 667.968, 361 670.020, 361 670.723 C 361 671.425, 360.643 672, 360.206 672 C 359.769 672, 356.555 675.857, 353.064 680.570 C 349.573 685.284, 346.205 689.672, 345.580 690.320 C 344.956 690.969, 342.295 694.200, 339.667 697.500 C 337.039 700.800, 333.798 704.850, 332.465 706.500 C 326.405 714, 321.417 720.396, 320.500 721.840 C 319.950 722.706, 318.938 724.029, 318.250 724.779 C 317.563 725.529, 317 726.800, 317 727.603 C 317 728.406, 316.356 729.310, 315.568 729.612 C 314.781 729.914, 310.965 734.513, 307.089 739.831 C 303.213 745.149, 299.361 750.400, 298.529 751.500 C 296.966 753.566, 294.112 757.727, 286.450 769.113 C 284.003 772.750, 282 776.237, 282 776.863 C 282 777.488, 281.589 778, 281.086 778 C 280.583 778, 278.492 781.038, 276.439 784.750 C 274.386 788.462, 271.258 793.525, 269.489 796 C 267.720 798.475, 265.198 802.356, 263.886 804.625 C 262.574 806.895, 259.888 811.170, 257.918 814.125 C 255.947 817.081, 252.812 821.975, 250.950 825 C 249.089 828.025, 247.274 830.725, 246.918 831 C 246.561 831.275, 245.954 832.513, 245.567 833.750 C 245.181 834.987, 244.446 836, 243.933 836 C 243.420 836, 243 836.675, 243 837.500 C 243 838.325, 242.605 839, 242.121 839 C 241.638 839, 240.694 840.325, 240.023 841.944 C 239.352 843.563, 236.823 847.701, 234.402 851.139 C 231.981 854.578, 230 857.796, 230 858.291 C 230 858.786, 229.143 860.395, 228.095 861.866 C 227.048 863.337, 225.421 866.894, 224.480 869.770 C 222.750 875.062, 220.409 877.203, 221.617 872.390 C 221.977 870.954, 222.230 864.766, 222.179 858.640 C 222.128 852.513, 222.084 844.447, 222.080 840.715 C 222.077 836.982, 221.731 833.382, 221.312 832.715 C 220.894 832.047, 220.479 828.981, 220.391 825.903 C 220.304 822.824, 219.910 819.292, 219.517 818.053 C 219.124 816.814, 218.688 814.765, 218.549 813.499 C 218.021 808.683, 214.567 796.433, 213.311 794.921 C 212.590 794.053, 212 792.275, 212 790.970 C 212 788.416, 202.730 768.587, 200.488 766.345 C 199.742 765.599, 198.846 764.091, 198.498 762.994 C 198.150 761.897, 197.446 761, 196.933 761 C 196.420 761, 196 760.595, 196 760.100 C 196 758.969, 190.016 752.950, 185.173 749.210 C 175.351 741.623, 165.731 738.052, 153.678 737.518 C 148.711 737.298, 143.820 737.561, 142.809 738.102 C 139.382 739.936, 134.101 739.770, 132.292 737.770 C 129.322 734.488, 119.561 729.134, 114.450 727.983 C 89.958 722.468, 54.189 735.170, 31.668 757.379 C 24.163 764.781, 20 769.531, 20 770.693 C 20 771.066, 19.150 772.300, 18.111 773.436 C 16.249 775.470, 10.544 786.170, 7.679 793 C 4.574 800.403, 2.747 807.572, 1.433 817.500 C 0.745 822.705, 0.844 849.764, 1.564 853 C 1.870 854.375, 2.493 858.200, 2.948 861.500 C 4.024 869.301, 7.572 879.710, 10.446 883.501 C 14.963 889.457, 20.392 894.016, 22.614 893.718 C 25.477 893.335, 28.211 890.993, 27.614 889.437 C 26.810 887.341, 33.830 867.455, 38.007 860 C 38.469 859.175, 40.694 854.892, 42.951 850.483 C 49.575 837.542, 57.349 826.131, 65 818.118 C 66.375 816.678, 69.291 813.250, 71.479 810.500 C 73.668 807.750, 75.918 804.985, 76.479 804.355 C 77.041 803.725, 78.625 801.765, 80 800 C 81.375 798.235, 83.063 796.195, 83.750 795.467 C 84.438 794.739, 85 793.893, 85 793.588 C 85 792.913, 93.756 783.308, 96.392 781.091 C 97.433 780.216, 99.233 778.449, 100.392 777.164 C 106.250 770.670, 125.730 758.635, 131.977 757.651 C 133.572 757.399, 135.369 756.890, 135.970 756.519 C 140.717 753.585, 162.115 754.606, 167 758.001 C 168.375 758.956, 170.450 760.032, 171.612 760.392 C 173.991 761.130, 179.649 766.365, 185.270 773.030 C 189.070 777.537, 195.400 789.650, 196.618 794.746 C 196.980 796.261, 197.615 797.950, 198.030 798.500 C 199.871 800.939, 203.490 817.617, 204.649 829 C 205.257 834.971, 205.523 862.818, 205.064 872.500 C 204.751 879.103, 203.108 891.642, 202.247 894 C 201.946 894.825, 201.503 897.975, 201.263 901 C 201.024 904.025, 200.142 907.959, 199.304 909.742 C 198.466 911.525, 198.040 913.662, 198.359 914.492 C 198.677 915.321, 198.574 916, 198.131 916 C 197.687 916, 197.262 917.661, 197.185 919.691 C 197.026 923.931, 195.388 927.718, 190.510 935.124 C 185.130 943.294, 170.659 973.120, 167.525 982.500 C 166.606 985.250, 164.762 989.674, 163.427 992.332 C 162.092 994.990, 161.001 997.690, 161.003 998.332 C 161.006 999.431, 155.343 1014.922, 152.534 1021.500 C 151.830 1023.150, 150.474 1026.750, 149.521 1029.500 C 148.568 1032.250, 147.401 1035.400, 146.928 1036.500 C 143.434 1044.615, 135.767 1067.243, 136.042 1068.626 C 136.113 1068.984, 135.795 1069.552, 135.335 1069.888 C 133.311 1071.371, 119.817 1116.138, 115.407 1136 C 114.491 1140.125, 112.189 1149.800, 110.291 1157.500 C 107.144 1170.271, 105.250 1178.408, 100.402 1200 C 99.476 1204.125, 98.310 1208.022, 97.811 1208.661 C 97.253 1209.375, 97.313 1210.075, 97.968 1210.480 C 98.553 1210.842, 98.734 1211.621, 98.370 1212.211 C 97.651 1213.374, 92.285 1237.300, 91.465 1243 C 91.188 1244.925, 90.526 1247.625, 89.994 1249 C 89.462 1250.375, 88.803 1253.075, 88.529 1255 C 87.439 1262.657, 86.726 1266.797, 85.342 1273.500 C 84.548 1277.350, 83.871 1281.175, 83.838 1282 C 83.805 1282.825, 83.403 1285.300, 82.944 1287.500 C 81.701 1293.464, 81.162 1296.863, 80.407 1303.500 C 80.032 1306.800, 79.631 1310.175, 79.516 1311 C 79.402 1311.825, 78.991 1315.200, 78.603 1318.500 C 78.215 1321.800, 77.470 1327.425, 76.948 1331 C 75.866 1338.396, 72.044 1370.242, 71.569 1375.812 C 71.396 1377.841, 70.692 1384, 70.004 1389.500 C 67.933 1406.053, 67.377 1427.232, 68.908 1431.257 C 69.550 1432.948, 70.695 1434, 71.892 1434 C 72.960 1434, 73.985 1434.454, 74.170 1435.010 C 74.355 1435.565, 75.405 1436.200, 76.503 1436.421 C 77.601 1436.642, 79.691 1437.284, 81.147 1437.847 C 82.603 1438.411, 84.027 1438.640, 84.312 1438.355 C 84.596 1438.071, 85.719 1438.314, 86.806 1438.896 C 88.288 1439.689, 89.572 1439.561, 91.930 1438.385 C 96.371 1436.170, 98 1437.131, 98 1441.969 C 98 1445.990, 99.888 1447.795, 100.125 1444 C 100.343 1440.519, 102.779 1435, 104.098 1435 C 104.526 1435, 104.847 1434.213, 104.811 1433.250 C 104.753 1431.694, 106.205 1417.462, 107.540 1406.500 C 107.808 1404.300, 108.701 1396.875, 109.524 1390 C 111.776 1371.210, 111.911 1370.204, 113.488 1360.500 C 113.757 1358.850, 114.221 1355.475, 114.520 1353 C 115.012 1348.930, 115.683 1344.439, 117.581 1332.500 C 117.931 1330.300, 118.337 1327.600, 118.484 1326.500 C 118.631 1325.400, 119.021 1323.375, 119.352 1322 C 119.682 1320.625, 120.200 1316.800, 120.503 1313.500 C 120.806 1310.200, 121.261 1306.375, 121.513 1305 C 121.766 1303.625, 122.182 1301.375, 122.438 1300 C 122.693 1298.625, 124.070 1289.850, 125.498 1280.500 C 127.696 1266.101, 129.060 1257.783, 131.606 1243.250 C 131.823 1242.013, 132.177 1239.954, 132.393 1238.675 C 132.609 1237.397, 133.332 1233.718, 134 1230.500 C 134.668 1227.282, 135.386 1223.716, 135.594 1222.575 C 136.078 1219.935, 139.426 1205.047, 141.009 1198.500 C 141.674 1195.750, 143.142 1190.350, 144.272 1186.500 C 145.402 1182.650, 146.455 1178.375, 146.613 1177 C 146.899 1174.517, 150.742 1159.385, 153.153 1151.252 C 153.875 1148.817, 155.178 1146.761, 156.205 1146.435 C 157.192 1146.122, 160.243 1144.356, 162.985 1142.510 C 174.601 1134.693, 188.964 1131.558, 210 1132.248 C 231.910 1132.966, 243.687 1136.319, 256.559 1145.505 C 260.034 1147.985, 264.495 1151.988, 266.473 1154.402 L 270.070 1158.791 270.145 1173.645 C 270.240 1192.610, 268.271 1211.091, 264.354 1228 C 263.024 1233.744, 257.219 1252.050, 255 1257.500 C 251.875 1265.177, 250.738 1269.108, 250.424 1273.328 C 250.122 1277.379, 250.454 1278.545, 252.487 1280.578 C 255.341 1283.432, 258.386 1283.622, 264.230 1281.312 C 269.632 1279.177, 278.143 1274.063, 279.656 1272.043 C 280.292 1271.194, 282.992 1268.151, 285.656 1265.280 C 293.144 1257.211, 293.310 1256.972, 299.022 1246 C 307.427 1229.855, 311.290 1215.248, 311.318 1199.500 C 311.335 1190.266, 310.892 1187.056, 308.562 1179.504 C 307.035 1174.556, 305.044 1169.381, 304.139 1168.004 C 303.233 1166.627, 301.599 1163.745, 300.508 1161.600 C 296.724 1154.163, 264.261 1126.648, 251 1119.638 C 243.203 1115.517, 231.598 1111.771, 218.116 1109.024 C 207.799 1106.921, 197.509 1106.368, 196.583 1107.866 C 196.289 1108.342, 194.971 1108.526, 193.655 1108.274 C 192.339 1108.023, 188.467 1108.533, 185.051 1109.409 C 181.634 1110.284, 177.551 1111, 175.978 1111 C 174.405 1111, 172.835 1111.457, 172.490 1112.016 C 172.144 1112.575, 171.459 1112.784, 170.967 1112.480 C 170.475 1112.176, 169.157 1112.843, 168.036 1113.964 C 164.808 1117.192, 163.975 1116.400, 165.450 1111.500 C 166.195 1109.025, 166.511 1106.993, 166.152 1106.985 C 165.793 1106.976, 165.984 1106.639, 166.575 1106.235 C 167.166 1105.831, 168.931 1101.450, 170.496 1096.500 C 172.062 1091.550, 173.657 1087.050, 174.041 1086.500 C 174.425 1085.950, 175.302 1083.700, 175.990 1081.500 C 176.679 1079.300, 177.637 1077.072, 178.121 1076.550 C 178.604 1076.027, 179 1074.971, 179 1074.201 C 179 1073.432, 179.626 1071.384, 180.391 1069.651 C 181.155 1067.918, 182.553 1064.475, 183.497 1062 C 184.440 1059.525, 185.689 1056.375, 186.272 1055 C 186.855 1053.625, 187.386 1052.275, 187.452 1052 C 187.517 1051.725, 188.193 1050.375, 188.954 1049 C 189.715 1047.625, 190.319 1046.275, 190.296 1046 C 190.192 1044.751, 194.259 1032.713, 195.244 1031.352 C 195.701 1030.721, 196.282 1029.371, 196.535 1028.352 C 196.788 1027.333, 198.803 1021.100, 201.013 1014.500 C 203.223 1007.900, 206.647 997.550, 208.622 991.500 C 210.596 985.450, 213.064 978.592, 214.106 976.261 C 215.148 973.929, 216 971.623, 216 971.135 C 216 969.208, 221.037 959, 221.987 959 C 222.544 959, 223 957.979, 223 956.732 C 223 955.485, 224.125 952.809, 225.500 950.785 C 226.875 948.762, 228 946.695, 228 946.193 C 228 945.690, 229.087 943.678, 230.415 941.721 C 231.743 939.764, 232.568 937.901, 232.248 937.581 C 231.928 937.262, 232.192 937, 232.833 937 C 233.475 937, 234 936.362, 234 935.583 C 234 934.804, 234.387 934.017, 234.860 933.833 C 235.332 933.650, 237.833 929.450, 240.418 924.500 C 243.002 919.550, 246.048 913.925, 247.188 912 C 248.328 910.075, 251.601 904, 254.463 898.500 C 260.465 886.964, 263.787 881.024, 265.229 879.250 C 265.788 878.563, 265.895 878, 265.467 878 C 265.040 878, 265.403 877.212, 266.275 876.248 C 267.147 875.285, 268.362 873.372, 268.974 871.998 C 269.586 870.624, 271.418 867.250, 273.045 864.500 C 274.672 861.750, 276.433 858.509, 276.958 857.299 C 277.484 856.088, 279.150 853.163, 280.661 850.799 C 282.173 848.434, 284.138 845.150, 285.029 843.500 C 287.738 838.481, 296.489 824.465, 298.556 821.833 C 299.625 820.472, 301.400 817.590, 302.500 815.429 C 303.600 813.268, 304.755 811.275, 305.066 811 C 305.377 810.725, 307.333 807.913, 309.413 804.750 C 311.493 801.587, 313.566 799, 314.020 799 C 314.474 799, 315.337 797.508, 315.939 795.685 C 316.541 793.862, 318.586 790.825, 320.485 788.935 C 322.383 787.046, 323.951 784.871, 323.968 784.103 C 323.986 783.335, 325.481 780.860, 327.291 778.603 C 329.101 776.346, 332.291 772.081, 334.379 769.125 C 336.468 766.169, 339.026 762.794, 340.065 761.625 C 343.162 758.139, 351.359 748.483, 353.411 745.903 C 356.693 741.775, 361.025 736.787, 368.525 728.500 C 378.146 717.870, 383.411 711.998, 385.857 709.171 C 401.765 690.782, 415.812 676.203, 447.203 645.500 C 480.031 613.391, 498.591 596.414, 509.447 588.562 C 511.882 586.801, 514.420 584.791, 517.708 582.019 C 518.372 581.458, 519.222 581, 519.596 581 C 519.970 581, 522.138 579.313, 524.413 577.250 C 526.688 575.188, 530.415 572.008, 532.696 570.184 C 534.977 568.360, 537.948 565.885, 539.298 564.684 C 542.554 561.787, 547.091 553.401, 546.390 551.574 C 546.084 550.776, 546.771 549.320, 547.917 548.339 C 549.612 546.888, 550 545.401, 550 540.360 C 550 536.952, 549.720 533.435, 549.379 532.545 C 548.576 530.453, 543.811 528, 540.550 528 C 539.147 528, 537.993 527.438, 537.985 526.750 C 537.957 524.472, 536.260 522.753, 533.766 522.480 C 532.098 522.297, 527.821 524.510, 520.483 529.355" stroke="none" fill="#ffffff" fill-rule="evenodd"/><path d="M 735.978 3.794 C 730.404 6.729, 716.869 16.529, 711.698 21.375 C 710.158 22.819, 708.709 24, 708.479 24 C 707.580 24, 685 47.440, 685 48.373 C 685 48.649, 683.826 50.140, 682.391 51.687 C 679.085 55.252, 670 67.841, 670 68.857 C 670 69.278, 669.212 70.496, 668.250 71.562 C 666.633 73.355, 665.331 75.605, 660.473 85 C 659.477 86.925, 658.295 89.175, 657.846 90 C 655.928 93.524, 653.832 98.686, 653.340 101.100 C 652.882 103.347, 654.216 105.111, 663.172 114.100 C 668.871 119.820, 677.126 128.954, 681.517 134.398 C 694.068 149.960, 694.106 149.997, 697.274 149.336 C 698.800 149.018, 701.329 147.561, 702.895 146.098 C 704.461 144.635, 706.813 142.950, 708.121 142.353 C 709.429 141.756, 712.641 139.633, 715.259 137.634 C 717.876 135.635, 720.308 134, 720.664 134 C 721.020 134, 722.786 132.875, 724.589 131.500 C 726.392 130.125, 728.174 129, 728.549 129 C 728.924 129, 732.217 127.016, 735.866 124.592 C 744.675 118.738, 760.173 110.840, 770.486 106.948 C 780.232 103.269, 780.060 103.587, 780.496 88.500 C 781.091 67.877, 777.102 52.293, 764.240 25 C 753.774 2.794, 747.220 -2.124, 735.978 3.794 M 994.999 36.250 C 995 36.999, 996.628 37.253, 1002.750 37.456 C 1008.312 37.641, 1006.307 36.204, 1000.499 35.843 C 997.473 35.654, 994.998 35.837, 994.999 36.250 M 577.570 65.181 C 575.296 66.500, 564.029 78.171, 564.012 79.224 C 564.005 79.623, 561.323 83.059, 558.052 86.860 C 554.780 90.661, 552.344 94.011, 552.638 94.304 C 552.931 94.598, 552.233 95.340, 551.086 95.954 C 549.939 96.568, 549 97.681, 549 98.428 C 549 99.175, 548.396 100.018, 547.658 100.301 C 546.921 100.584, 544.720 103.220, 542.768 106.158 C 540.816 109.096, 538.270 112.357, 537.110 113.405 C 535.949 114.453, 535 115.837, 535 116.481 C 535 117.125, 533.875 118.708, 532.500 120 C 531.125 121.292, 530 122.804, 530 123.360 C 530 123.916, 529.037 125.396, 527.861 126.648 C 525.544 129.114, 524.247 131.223, 521.066 137.689 C 519.933 139.994, 518.526 142.175, 517.941 142.536 C 517.356 142.898, 516.448 144.163, 515.923 145.347 C 515.399 146.531, 514.088 148.850, 513.010 150.500 C 507.233 159.340, 498.276 176.782, 490.812 193.727 C 489.656 196.352, 488.094 199.850, 487.340 201.500 C 486.586 203.150, 485.762 205.592, 485.508 206.927 C 485.254 208.261, 484.586 209.814, 484.023 210.377 C 483.461 210.939, 483 211.956, 483 212.635 C 483 213.314, 482.481 215.137, 481.846 216.685 C 481.212 218.233, 480.567 219.950, 480.414 220.500 C 480.261 221.050, 478.939 225.100, 477.475 229.500 C 473.382 241.807, 472.939 243.485, 471.318 252.806 C 468.551 268.712, 467.982 272.458, 467.499 277.932 C 467.235 280.920, 466.760 284.182, 466.442 285.182 C 466.125 286.182, 466.334 287, 466.908 287 C 467.565 287, 467.648 287.831, 467.130 289.250 C 465.957 292.470, 466.878 321.836, 468.346 328 C 468.674 329.375, 469.171 332.149, 469.452 334.164 C 470.258 339.957, 474.859 357.152, 476.632 361 C 477.519 362.925, 478.776 365.625, 479.425 367 C 481.105 370.558, 485.407 378.407, 486.002 379 C 486.277 379.275, 487.177 380.808, 488.002 382.408 C 488.826 384.007, 490.279 385.519, 491.230 385.769 C 492.182 386.019, 494.055 388.535, 495.393 391.361 C 496.731 394.188, 498.653 397.488, 499.663 398.694 C 500.673 399.901, 503.733 404.064, 506.461 407.944 C 509.190 411.825, 512.003 415, 512.711 415 C 513.420 415, 514 415.675, 514 416.500 C 514 417.325, 514.420 418, 514.933 418 C 515.446 418, 516.117 418.788, 516.424 419.750 C 517.066 421.759, 534.411 440, 535.679 440 C 536.141 440, 537.081 440.900, 537.768 442 C 538.455 443.100, 539.688 444, 540.508 444 C 541.329 444, 541.887 444.492, 541.750 445.093 C 541.612 445.694, 542.357 446.707, 543.403 447.343 C 544.450 447.979, 546.865 450.188, 548.770 452.250 C 550.674 454.312, 552.845 456, 553.593 456 C 554.342 456, 555.691 457.125, 556.592 458.500 C 557.493 459.875, 558.828 461, 559.558 461 C 560.289 461, 561.475 461.791, 562.193 462.758 C 562.912 463.725, 565.975 466.531, 569 468.994 C 572.025 471.456, 574.860 474.040, 575.300 474.736 C 575.740 475.431, 576.580 476, 577.168 476 C 578.293 476, 583.403 480.025, 588.582 484.992 C 592.446 488.697, 600.106 489.876, 602.844 487.187 C 603.788 486.259, 605.777 484.866, 607.264 484.090 C 608.750 483.315, 610.761 481.952, 611.733 481.062 C 612.705 480.172, 615.525 478.250, 618 476.792 C 620.475 475.334, 623.905 472.872, 625.623 471.321 C 627.340 469.769, 631.096 466.475, 633.970 464 C 638.460 460.133, 645.003 453.746, 658.048 440.500 C 659.672 438.850, 661.001 437.007, 661.001 436.405 C 661 435.803, 661.900 434.495, 663 433.500 C 664.100 432.505, 665 431.288, 665 430.797 C 665 430.306, 666.125 428.862, 667.500 427.588 C 668.875 426.313, 670 424.838, 670 424.310 C 670 423.781, 671.087 422.328, 672.415 421.079 C 673.744 419.831, 675.099 417.741, 675.427 416.434 C 675.755 415.127, 676.918 413.579, 678.012 412.994 C 679.105 412.408, 680 411.340, 680 410.620 C 680 409.899, 680.900 408.495, 682 407.500 C 683.100 406.505, 684 404.908, 684 403.952 C 684 402.996, 684.704 401.944, 685.563 401.614 C 686.423 401.284, 686.866 400.592, 686.547 400.076 C 686.228 399.560, 686.450 398.840, 687.040 398.475 C 687.630 398.110, 689.226 395.379, 690.586 392.406 C 691.946 389.433, 693.443 387, 693.912 387 C 694.381 387, 695.952 384.638, 697.402 381.750 C 701.762 373.071, 705.713 365.983, 707.192 364.191 C 707.959 363.261, 709.049 361.375, 709.614 360 C 710.179 358.625, 712.119 354.350, 713.924 350.500 C 718.523 340.689, 718.545 340.632, 722.027 329.500 C 723.748 324, 725.537 318.600, 726.002 317.500 C 726.843 315.515, 727.691 311.798, 728.397 307 C 728.600 305.625, 729.272 302.055, 729.892 299.066 C 730.511 296.077, 730.771 292.853, 730.468 291.900 C 730.166 290.948, 730.327 289.916, 730.827 289.607 C 731.327 289.298, 731.830 285.548, 731.946 281.273 C 732.061 276.998, 732.305 271.689, 732.487 269.476 C 732.669 267.263, 732.143 260.513, 731.318 254.476 C 730.493 248.439, 729.841 242.375, 729.869 241 C 729.896 239.625, 729.540 237.375, 729.076 236 C 727.827 232.299, 725.912 225.715, 725.587 224 C 725.430 223.175, 724.971 221.600, 724.566 220.500 C 724.162 219.400, 723.247 216.925, 722.534 215 C 717.156 200.475, 706.103 178.212, 703.750 177.167 C 703.337 176.983, 703 176.241, 703 175.517 C 703 174.206, 700.657 170.532, 691.707 157.807 C 689.118 154.126, 687 150.899, 687 150.634 C 687 150.370, 685.650 148.804, 684 147.154 C 682.350 145.504, 681 143.444, 681 142.577 C 681 141.710, 680.642 141, 680.205 141 C 679.769 141, 677.744 138.863, 675.706 136.250 C 673.668 133.637, 669.976 129.278, 667.500 126.563 C 665.025 123.847, 663 121.260, 663 120.813 C 663 120.366, 662.325 120, 661.500 120 C 660.675 120, 660 119.325, 660 118.500 C 660 117.675, 659.575 117, 659.055 117 C 658.536 117, 655.948 114.862, 653.305 112.250 C 647.258 106.272, 633.459 93.856, 629.500 90.830 C 627.850 89.568, 626.350 88.191, 626.167 87.768 C 625.983 87.346, 625.410 87, 624.894 87 C 624.377 87, 620.523 84.728, 616.329 81.951 C 612.135 79.174, 608.226 76.811, 607.641 76.701 C 607.057 76.590, 605.669 75.695, 604.558 74.711 C 603.447 73.726, 600.280 71.867, 597.519 70.578 C 582.173 63.412, 581.112 63.125, 577.570 65.181 M 906 79.703 C 904.075 79.870, 898 80.500, 892.500 81.105 C 887 81.709, 881.375 82.315, 880 82.451 C 866.505 83.789, 826.182 93.816, 809 100.105 C 805.975 101.213, 801.475 102.717, 799 103.448 C 796.525 104.179, 792.025 105.775, 789 106.993 C 785.975 108.212, 781.700 109.869, 779.500 110.675 C 777.300 111.481, 775.072 112.559, 774.550 113.070 C 774.027 113.582, 773 114, 772.266 114 C 770.238 114, 744.027 127.255, 737.912 131.373 C 734.950 133.368, 732.100 135, 731.578 135 C 730.538 135, 723.058 141.048, 716 147.595 C 713.525 149.891, 710.341 152.834, 708.925 154.135 C 707.510 155.436, 706.050 157.175, 705.682 158 C 705.314 158.825, 704.457 160.276, 703.778 161.225 C 701.899 163.848, 703.537 166.962, 714.261 181.160 C 720.224 189.054, 725.594 197.524, 728.528 203.660 C 731.116 209.072, 733.633 214.285, 734.122 215.245 C 734.914 216.800, 738.438 227.324, 740.905 235.500 C 742.474 240.700, 743.933 248.302, 744.457 254 C 744.735 257.025, 745.319 262.425, 745.755 266 C 747.304 278.693, 744.314 305.102, 739.488 321.354 C 737.203 329.046, 730.042 347.878, 726.693 355 C 725.012 358.575, 723.599 361.725, 723.553 362 C 723.507 362.275, 723.180 362.953, 722.825 363.508 C 722.471 364.062, 721.866 366.199, 721.479 368.258 C 720.869 371.514, 721.024 372, 722.677 372 C 723.722 372, 729.044 369.276, 734.505 365.947 C 758.574 351.272, 784.627 340.699, 805.861 336.991 C 827.184 333.266, 855.085 334.976, 877.099 341.356 C 891.372 345.492, 901.418 350.146, 918.500 360.533 C 922.350 362.874, 926.540 365.101, 927.811 365.482 C 932.304 366.827, 939.022 360.071, 949.742 343.428 C 952.182 339.641, 957.494 329.444, 958.670 326.292 C 959.328 324.528, 960.548 321.603, 961.382 319.792 C 963.666 314.831, 972.910 287.690, 973.402 284.500 C 973.487 283.950, 973.835 283.050, 974.175 282.500 C 974.516 281.950, 976.431 273.850, 978.430 264.500 C 980.430 255.150, 982.487 245.700, 983.002 243.500 C 983.517 241.300, 984.187 237.250, 984.491 234.500 C 984.795 231.750, 985.502 227.203, 986.063 224.396 C 988.199 213.691, 989.806 192.763, 989.931 174 C 990.064 154.223, 988.671 137.726, 983.980 103.500 C 981.055 82.158, 981.086 82.316, 979.584 81.069 C 978.642 80.288, 967.592 79.855, 943.860 79.669 C 924.962 79.521, 907.925 79.536, 906 79.703 M 997 279.691 C 995.075 279.894, 992.600 280.446, 991.500 280.916 C 990.400 281.387, 987.700 282.160, 985.500 282.636 C 981.854 283.423, 981.384 283.898, 980.191 288 C 972.956 312.863, 971.122 317.269, 950.876 358.452 C 947.644 365.026, 945 370.993, 945 371.712 C 945 372.430, 947.362 374.459, 950.250 376.220 C 962.270 383.551, 981.933 397.296, 987.930 402.559 C 993.748 407.666, 994.693 408.149, 997.849 407.637 C 999.768 407.326, 1001.600 406.708, 1001.919 406.265 C 1002.239 405.822, 1003.625 404.916, 1005 404.253 C 1008.254 402.683, 1022.382 392.618, 1024.982 390.018 C 1026.092 388.908, 1027.346 388, 1027.769 388 C 1029.596 388, 1058.895 357.808, 1059.853 354.938 C 1060.048 354.356, 1061.333 352.670, 1062.709 351.190 C 1064.085 349.711, 1066.680 346.250, 1068.475 343.500 C 1073.486 335.824, 1078.545 327.664, 1079.324 326 C 1079.710 325.175, 1081.145 322.517, 1082.513 320.093 C 1083.881 317.669, 1085 314.856, 1085 313.843 C 1085 312.829, 1085.338 311.999, 1085.750 311.998 C 1086.162 311.997, 1086.601 310.563, 1086.724 308.812 C 1087.091 303.602, 1081.842 297.640, 1074 294.359 C 1070.425 292.864, 1067.072 291.271, 1066.550 290.820 C 1066.028 290.369, 1064.678 289.985, 1063.550 289.966 C 1062.423 289.947, 1059.700 289.063, 1057.500 288 C 1055.300 286.937, 1052.800 286.053, 1051.944 286.034 C 1051.088 286.015, 1047.713 285.149, 1044.444 284.109 C 1030.983 279.828, 1012.214 278.080, 997 279.691 M 818 349.562 C 807.103 351.540, 797.642 353.695, 786 356.851 C 777.783 359.079, 745 374.371, 745 375.976 C 745 376.411, 744.212 377.024, 743.250 377.339 C 740.510 378.236, 732.758 382.962, 730 385.417 C 728.625 386.641, 723.819 390.247, 719.321 393.431 C 714.822 396.615, 710.322 399.972, 709.321 400.891 C 708.319 401.810, 704.688 404.526, 701.250 406.926 C 697.813 409.326, 695 411.642, 695 412.072 C 695 412.502, 694.366 412.999, 693.592 413.177 C 691.815 413.585, 683.819 420.440, 674.551 429.500 C 670.612 433.350, 665.840 437.958, 663.945 439.740 C 656.786 446.474, 654 449.538, 654 450.678 C 654 451.325, 652.875 452.740, 651.500 453.821 C 650.125 454.903, 649 456.114, 649 456.512 C 649 456.910, 647.763 458.741, 646.250 460.581 C 641.189 466.738, 639 469.809, 639 470.753 C 639 471.268, 638.100 472.505, 637 473.500 C 635.900 474.495, 635 475.915, 635 476.655 C 635 477.395, 634.602 478, 634.116 478 C 633.630 478, 631.734 481.038, 629.902 484.750 C 628.071 488.462, 626.219 491.650, 625.786 491.833 C 625.354 492.017, 625 492.624, 625 493.182 C 625 494.531, 621.804 501.359, 620.863 502.021 C 619.443 503.020, 619.115 508.159, 620.303 510.789 C 621.583 513.621, 649.582 542, 651.097 542 C 651.594 542, 652 542.675, 652 543.500 C 652 544.325, 652.504 545, 653.120 545 C 653.736 545, 656.128 546.913, 658.435 549.250 C 660.743 551.587, 665.004 555.525, 667.904 558 C 670.803 560.475, 674.336 563.738, 675.753 565.250 C 677.171 566.763, 678.819 568.006, 679.415 568.014 C 680.012 568.022, 682.522 569.851, 684.993 572.080 C 687.464 574.308, 691.964 577.516, 694.993 579.208 C 698.022 580.900, 700.950 582.793, 701.500 583.415 C 704.003 586.245, 726.946 599, 729.534 599 C 730.133 599, 731.495 599.788, 732.561 600.750 C 733.628 601.712, 735.850 603.159, 737.500 603.964 C 739.150 604.769, 741.652 606.202, 743.061 607.147 C 744.470 608.093, 746.915 609.191, 748.494 609.588 C 750.074 609.984, 752.522 610.912, 753.933 611.648 C 755.345 612.385, 757.711 612.990, 759.191 612.994 C 760.671 612.997, 762.165 613.457, 762.510 614.016 C 762.856 614.575, 763.487 614.817, 763.913 614.554 C 764.339 614.290, 766.220 614.480, 768.094 614.974 C 781.388 618.485, 811.767 618.328, 835.506 614.626 C 837.160 614.368, 841.660 613.408, 845.506 612.493 C 849.353 611.578, 852.950 610.734, 853.500 610.616 C 856.463 609.982, 870.941 605.420, 874.500 604 C 875.600 603.561, 878.075 602.639, 880 601.951 C 888.502 598.912, 896.777 595.170, 897.469 594.050 C 897.774 593.557, 899.368 592.858, 901.011 592.497 C 902.655 592.136, 904 591.427, 904 590.921 C 904 590.414, 904.593 590, 905.317 590 C 906.997 590, 915.897 585.398, 923 580.856 C 926.025 578.922, 929.400 577.011, 930.500 576.609 C 933.180 575.629, 955.303 560.804, 956.237 559.362 C 956.643 558.736, 958.092 557.943, 959.458 557.600 C 960.825 557.257, 962.421 556.082, 963.006 554.988 C 963.592 553.895, 964.681 553, 965.428 553 C 966.175 553, 967.045 552.325, 967.362 551.500 C 967.678 550.675, 968.601 550, 969.412 550 C 970.223 550, 971.511 549.109, 972.274 548.020 C 973.036 546.931, 975.874 544.381, 978.580 542.355 C 986.975 536.067, 998.720 525.215, 1017.467 506.426 C 1027.385 496.485, 1036.176 487.485, 1037.003 486.426 C 1037.829 485.367, 1039.517 483.202, 1040.753 481.615 C 1043.479 478.115, 1043.614 474.697, 1041.165 471.154 C 1040.156 469.694, 1038.356 466.475, 1037.166 464 C 1035.976 461.525, 1033.208 457.475, 1031.017 455 C 1028.825 452.525, 1027.024 450.019, 1027.016 449.431 C 1027.007 448.842, 1024.608 445.832, 1021.685 442.741 C 1018.762 439.649, 1015.499 435.926, 1014.435 434.467 C 1013.371 433.008, 1006.425 426.485, 999 419.970 C 991.575 413.455, 984.234 406.972, 982.687 405.563 C 981.140 404.153, 979.453 403, 978.937 403 C 978.422 403, 978 402.626, 978 402.169 C 978 401.712, 976.763 400.699, 975.250 399.919 C 973.737 399.139, 971.375 397.474, 970 396.219 C 967.558 393.992, 960.646 389.627, 952.848 385.389 C 950.712 384.227, 948.185 382.649, 947.232 381.882 C 946.279 381.114, 943.250 379.410, 940.500 378.095 C 937.750 376.781, 934.825 375.308, 934 374.823 C 933.175 374.339, 931.712 373.678, 930.750 373.354 C 929.788 373.031, 929 372.421, 929 372 C 929 371.578, 926.413 370.207, 923.250 368.953 C 920.087 367.700, 914.281 365.173, 910.346 363.337 C 906.411 361.502, 902.549 360, 901.763 360 C 900.977 360, 900.020 359.687, 899.638 359.304 C 899.255 358.922, 898.393 358.502, 897.721 358.372 C 897.049 358.242, 894.025 357.404, 891 356.510 C 887.975 355.616, 882.575 354.187, 879 353.336 C 875.425 352.484, 871.749 351.404, 870.831 350.936 C 869.912 350.467, 868.168 350.275, 866.953 350.509 C 865.739 350.743, 863.816 350.437, 862.680 349.829 C 859.490 348.122, 827.003 347.928, 818 349.562" stroke="none" fill="#ffffff" fill-rule="evenodd"/></svg>